<?xml version="1.0" encoding="UTF-8"?>
<svg xmlns="http://www.w3.org/2000/svg" width="176" height="176" viewBox="0 0 176 176" fill="none">
  <path d="M175.437 0.999987C175.324 1.14849 175.603 0.917225 175.437 0.999987Z" stroke="black" stroke-opacity="0.01" stroke-linecap="round" stroke-linejoin="round"></path>
  <path d="M175.437 0.999987C175.324 1.14849 175.603 0.917225 175.437 0.999987Z" stroke="black" stroke-opacity="0.01" stroke-linecap="round" stroke-linejoin="round"></path>
  <path d="M175.028 175.018C174.914 175.167 175.194 174.936 175.028 175.018Z" stroke="black" stroke-opacity="0.01" stroke-linecap="round" stroke-linejoin="round"></path>
  <path d="M175.028 175.018C174.914 175.167 175.194 174.936 175.028 175.018Z" stroke="black" stroke-opacity="0.01" stroke-linecap="round" stroke-linejoin="round"></path>
  <path d="M1.02804 175.018C0.914479 175.167 1.19357 174.936 1.02804 175.018Z" stroke="black" stroke-opacity="0.01" stroke-linecap="round" stroke-linejoin="round"></path>
  <path d="M1.02804 175.018C0.914479 175.167 1.19357 174.936 1.02804 175.018Z" stroke="black" stroke-opacity="0.01" stroke-linecap="round" stroke-linejoin="round"></path>
  <path d="M1.02804 1.01845C0.914479 1.16696 1.19357 0.935689 1.02804 1.01845Z" stroke="black" stroke-opacity="0.01" stroke-linecap="round" stroke-linejoin="round"></path>
  <path d="M1.02804 1.01845C0.914479 1.16696 1.19357 0.935689 1.02804 1.01845Z" stroke="black" stroke-opacity="0.01" stroke-linecap="round" stroke-linejoin="round"></path>
  <g clip-path="url(#clip0)">
    <path d="M140.1 48H33.27C28.7026 48 25 51.7026 25 56.27V123.18C25 127.747 28.7026 131.45 33.27 131.45H140.1C144.667 131.45 148.37 127.747 148.37 123.18V56.27C148.37 51.7026 144.667 48 140.1 48Z" stroke="#77787B" stroke-width="4" stroke-miterlimit="10"></path>
    <path d="M147.73 65.56H25.01V73.2H147.73V65.56Z" stroke="#77787B" stroke-width="4" stroke-miterlimit="10"></path>
    <path d="M70.34 96.31H41.42V101H70.34V96.31Z" fill="#787A7C"></path>
    <path d="M89.66 105.95H41.42V110.74H89.66V105.95Z" fill="#77787B"></path>
  </g>
  <defs>
    <clipPath id="clip0">
      <rect width="127.37" height="87.45" fill="white" transform="translate(23 46)"></rect>
    </clipPath>
  </defs>
</svg>
