<?xml version="1.0" encoding="UTF-8"?>
<svg xmlns="http://www.w3.org/2000/svg" width="176" height="176" viewBox="0 0 176 176" fill="none">
  <path d="M175.437 0.999987C175.324 1.14849 175.603 0.917225 175.437 0.999987Z" stroke="black" stroke-opacity="0.01" stroke-linecap="round" stroke-linejoin="round"></path>
  <path d="M175.437 0.999987C175.324 1.14849 175.603 0.917225 175.437 0.999987Z" stroke="black" stroke-opacity="0.01" stroke-linecap="round" stroke-linejoin="round"></path>
  <path d="M175.028 175.018C174.914 175.167 175.194 174.936 175.028 175.018Z" stroke="black" stroke-opacity="0.01" stroke-linecap="round" stroke-linejoin="round"></path>
  <path d="M175.028 175.018C174.914 175.167 175.194 174.936 175.028 175.018Z" stroke="black" stroke-opacity="0.01" stroke-linecap="round" stroke-linejoin="round"></path>
  <path d="M1.02804 175.018C0.914479 175.167 1.19357 174.936 1.02804 175.018Z" stroke="black" stroke-opacity="0.01" stroke-linecap="round" stroke-linejoin="round"></path>
  <path d="M1.02804 175.018C0.914479 175.167 1.19357 174.936 1.02804 175.018Z" stroke="black" stroke-opacity="0.01" stroke-linecap="round" stroke-linejoin="round"></path>
  <path d="M1.02804 1.01845C0.914479 1.16696 1.19357 0.935689 1.02804 1.01845Z" stroke="black" stroke-opacity="0.01" stroke-linecap="round" stroke-linejoin="round"></path>
  <path d="M1.02804 1.01845C0.914479 1.16696 1.19357 0.935689 1.02804 1.01845Z" stroke="black" stroke-opacity="0.01" stroke-linecap="round" stroke-linejoin="round"></path>
  <g clip-path="url(#clip0)">
    <path fill-rule="evenodd" clip-rule="evenodd" d="M124 138.91H116.68C116.222 138.944 115.794 139.15 115.481 139.487C115.169 139.823 114.995 140.266 114.995 140.725C114.995 141.184 115.169 141.627 115.481 141.963C115.794 142.3 116.222 142.506 116.68 142.54H124C124.458 142.506 124.886 142.3 125.199 141.963C125.511 141.627 125.685 141.184 125.685 140.725C125.685 140.266 125.511 139.823 125.199 139.487C124.886 139.15 124.458 138.944 124 138.91V138.91ZM140 146.17H100.73C100.659 146.168 100.592 146.138 100.542 146.088C100.492 146.038 100.462 145.971 100.46 145.9V135.27H140.17V145.9C140.168 145.971 140.138 146.038 140.088 146.088C140.038 146.138 139.971 146.168 139.9 146.17H140ZM100.73 80.94H139.9C139.971 80.9425 140.038 80.9717 140.088 81.0218C140.138 81.0719 140.168 81.1392 140.17 81.21V84.57H100.46V81.21C100.462 81.1392 100.492 81.0719 100.542 81.0218C100.592 80.9717 100.659 80.9425 100.73 80.94V80.94ZM100.46 88.21H140.17V131.64H100.46V88.21ZM139.9 77.31H100.73C99.6965 77.3126 98.706 77.7244 97.9752 78.4552C97.2444 79.186 96.8326 80.1765 96.83 81.21V145.9C96.8326 146.934 97.2444 147.924 97.9752 148.655C98.706 149.386 99.6965 149.797 100.73 149.8H139.9C140.934 149.797 141.924 149.386 142.655 148.655C143.386 147.924 143.797 146.934 143.8 145.9V81.21C143.797 80.1765 143.386 79.186 142.655 78.4552C141.924 77.7244 140.934 77.3126 139.9 77.31V77.31ZM91.38 94.26H39.08C38.8303 94.2415 38.5795 94.2746 38.3432 94.3574C38.107 94.4402 37.8903 94.5709 37.7068 94.7413C37.5234 94.9116 37.377 95.118 37.2769 95.3475C37.1768 95.577 37.1252 95.8246 37.1252 96.075C37.1252 96.3254 37.1768 96.573 37.2769 96.8025C37.377 97.032 37.5234 97.2384 37.7068 97.4087C37.8903 97.5791 38.107 97.7098 38.3432 97.7926C38.5795 97.8754 38.8303 97.9085 39.08 97.89H91.38C91.6297 97.9085 91.8805 97.8754 92.1168 97.7926C92.353 97.7098 92.5697 97.5791 92.7532 97.4087C92.9366 97.2384 93.083 97.032 93.1831 96.8025C93.2832 96.573 93.3348 96.3254 93.3348 96.075C93.3348 95.8246 93.2832 95.577 93.1831 95.3475C93.083 95.118 92.9366 94.9116 92.7532 94.7413C92.5697 94.5709 92.353 94.4402 92.1168 94.3574C91.8805 94.2746 91.6297 94.2415 91.38 94.26V94.26ZM85.13 121.17H70.27V110.17H85.13V121.17ZM91.38 110.17C91.6297 110.189 91.8805 110.155 92.1168 110.073C92.353 109.99 92.5697 109.859 92.7532 109.689C92.9366 109.518 93.083 109.312 93.1831 109.083C93.2832 108.853 93.3348 108.605 93.3348 108.355C93.3348 108.105 93.2832 107.857 93.1831 107.627C93.083 107.398 92.9366 107.192 92.7532 107.021C92.5697 106.851 92.353 106.72 92.1168 106.637C91.8805 106.555 91.6297 106.521 91.38 106.54H33.9C33.8292 106.538 33.7619 106.508 33.7118 106.458C33.6617 106.408 33.6325 106.341 33.63 106.27V39.9C33.6325 39.8292 33.6617 39.7619 33.7118 39.7118C33.7619 39.6617 33.8292 39.6325 33.9 39.63H121.5C121.571 39.6325 121.638 39.6617 121.688 39.7118C121.738 39.7619 121.768 39.8292 121.77 39.9V71.9C121.751 72.1497 121.785 72.4005 121.867 72.6368C121.95 72.873 122.081 73.0897 122.251 73.2732C122.422 73.4566 122.628 73.603 122.857 73.7031C123.087 73.8032 123.335 73.8548 123.585 73.8548C123.835 73.8548 124.083 73.8032 124.313 73.7031C124.542 73.603 124.748 73.4566 124.919 73.2732C125.089 73.0897 125.22 72.873 125.303 72.6368C125.385 72.4005 125.419 72.1497 125.4 71.9V39.9C125.397 38.8665 124.986 37.876 124.255 37.1452C123.524 36.4144 122.534 36.0026 121.5 36H33.9C32.8665 36.0026 31.876 36.4144 31.1452 37.1452C30.4144 37.876 30.0026 38.8665 30 39.9V106.3C30.0026 107.334 30.4144 108.324 31.1452 109.055C31.876 109.786 32.8665 110.197 33.9 110.2H66.64V121.2H52.64C52.1819 121.234 51.7536 121.44 51.4411 121.777C51.1285 122.113 50.9548 122.556 50.9548 123.015C50.9548 123.474 51.1285 123.917 51.4411 124.253C51.7536 124.59 52.1819 124.796 52.64 124.83H91.38C91.6297 124.849 91.8805 124.815 92.1168 124.733C92.353 124.65 92.5697 124.519 92.7532 124.349C92.9366 124.178 93.083 123.972 93.1831 123.743C93.2832 123.513 93.3348 123.265 93.3348 123.015C93.3348 122.765 93.2832 122.517 93.1831 122.287C93.083 122.058 92.9366 121.852 92.7532 121.681C92.5697 121.511 92.353 121.38 92.1168 121.297C91.8805 121.215 91.6297 121.181 91.38 121.2H88.76V110.2L91.38 110.17Z" fill="#77797C"></path>
  </g>
  <defs>
    <clipPath id="clip0">
      <rect width="113.8" height="113.8" fill="white" transform="translate(30 36)"></rect>
    </clipPath>
  </defs>
</svg>
